<?xml version="1.0" encoding="UTF-8" standalone="no"?>
<!DOCTYPE svg PUBLIC "-//W3C//DTD SVG 1.1//EN" "http://www.w3.org/Graphics/SVG/1.1/DTD/svg11.dtd">
<svg width="100%" height="100%" viewBox="0 0 222 234" version="1.1" xmlns="http://www.w3.org/2000/svg" xmlns:xlink="http://www.w3.org/1999/xlink" xml:space="preserve" xmlns:serif="http://www.serif.com/" style="fill-rule:evenodd;clip-rule:evenodd;stroke-linejoin:round;stroke-miterlimit:2;">
    <g transform="matrix(0.146378,0,0,0.146378,-220.007,-335.847)">
        <path d="M2137,3767C2138,3766 2093,3766 2095,3766L2335,3766C2341,3764 2347,3759 2347,3752C2347,3745 2342,3739 2335,3738L2140,3738C2105,3738 2077,3709 2077,3674C2077,3643 2100,3617 2130,3612C2132,3611 2116,3611 2117,3611L2340,3611C2347,3610 2352,3604 2352,3597C2352,3589 2345,3583 2337,3583C2257,3583 2176,3585 2095,3585C2079,3585 2068,3568 2064,3555C2043,3493 2030,3411 1984,3365C1863,3244 1819,3069 1890,2909C1956,2760 2101,2669 2264,2668C2600,2665 2793,3056 2592,3322C2608,3343 2617,3369 2617,3396C2617,3461 2564,3515 2499,3515C2433,3515 2380,3461 2380,3396C2380,3330 2433,3277 2499,3277C2518,3277 2536,3282 2552,3290C2727,3057 2557,2716 2265,2719C2122,2720 1995,2799 1936,2930C1874,3070 1913,3223 2020,3329C2076,3385 2086,3460 2110,3533L2110,3534L2337,3534C2372,3534 2401,3562 2401,3597C2401,3628 2378,3655 2348,3660L2314,3660L2343,3660L2138,3660C2131,3662 2126,3668 2126,3674C2126,3681 2131,3687 2138,3688L2332,3688C2367,3688 2396,3717 2396,3752C2396,3783 2373,3809 2342,3814C2341,3815 2369,3815 2367,3815L2144,3815C2138,3816 2133,3822 2133,3829C2133,3837 2139,3843 2147,3843C2168,3843 2220,3842 2241,3843C2447,3858 2604,3788 2753,3644C2888,3513 2964,3329 2964,3142C2964,3073 2954,3006 2935,2942L2934,2942C2909,2856 2867,2775 2811,2704L2809,2704C2724,2596 2608,2514 2474,2471L2474,2468L2473,2470C2439,2459 2404,2451 2368,2446C2365,2457 2360,2468 2353,2479C2316,2533 2243,2548 2188,2512C2165,2496 2148,2473 2140,2447C1807,2503 1553,2793 1553,3142C1553,3231 1570,3320 1603,3403C1617,3396 1633,3393 1649,3393C1715,3393 1768,3446 1768,3512C1768,3577 1715,3630 1649,3630C1584,3630 1531,3577 1531,3512C1531,3482 1541,3454 1561,3432C1523,3340 1503,3242 1503,3142C1503,2768 1776,2457 2134,2398C2134,2396 2135,2393 2135,2391L2137,2391C2140,2376 2146,2361 2155,2347C2191,2293 2265,2278 2320,2314C2349,2334 2367,2364 2371,2396C2414,2402 2456,2413 2497,2426L2497,2427C2574,2453 2646,2491 2710,2539L2710,2538C2780,2591 2839,2653 2886,2724L2887,2724C2967,2844 3013,2987 3013,3142C3013,3379 2902,3601 2712,3745C2507,3886 2388,3896 2147,3892C2112,3892 2083,3864 2083,3829C2083,3798 2106,3771 2137,3767ZM2320,2440L2320,2439C2321,2438 2321,2437 2321,2436L2322,2435L2322,2432L2323,2431L2323,2429L2324,2427L2324,2422L2325,2421L2325,2405L2324,2404L2324,2399L2323,2397L2323,2395L2322,2394L2322,2391L2321,2391L2321,2390C2316,2376 2307,2363 2293,2354C2261,2332 2216,2341 2194,2374C2191,2379 2188,2385 2186,2391L2186,2393L2185,2393L2185,2396L2184,2396L2184,2401L2183,2401L2183,2424L2184,2425L2184,2429L2185,2430L2185,2433L2186,2434L2186,2436L2187,2437L2187,2439L2188,2440C2193,2453 2202,2464 2214,2472C2247,2494 2291,2485 2313,2453C2316,2448 2318,2444 2320,2440ZM2554,3350C2547,3343 2539,3337 2531,3332C2521,3327 2510,3325 2499,3325C2460,3325 2428,3357 2428,3396C2428,3435 2459,3467 2499,3467C2538,3467 2570,3435 2570,3396C2570,3379 2564,3363 2554,3350ZM1649,3583C1689,3583 1720,3551 1720,3512C1720,3472 1689,3440 1649,3440C1610,3440 1578,3472 1578,3512C1578,3551 1610,3583 1649,3583Z" style="fill:rgb(252,175,93);"/>
    </g>
</svg>
